<?xml version="1.0" encoding="UTF-8"?>
<svg width="512" height="512" version="1.1" viewBox="0 0 512 512" xml:space="preserve" xmlns="http://www.w3.org/2000/svg"><g stroke-linecap="round" stroke-linejoin="round"><path transform="matrix(.91442 0 0 .91442 21.909 21.909)" d="m256-23.996c-154.66 0-280 125.34-280 280s125.34 280 280 280 280-125.34 280-280-125.34-280-280-280zm0 78.992c111.3 0 201 89.709 201 201-0.0106 39.846-11.872 78.562-33.756 111.4l-278.64-278.64c32.837-21.884 71.552-33.745 111.39-33.756zm-167.25 89.611 278.64 278.64c-32.837 21.884-71.552 33.745-111.39 33.756-111.3 0-201-89.709-201-201 0.01057-39.846 11.872-78.562 33.756-111.4z" stroke-width="2.4"/><path d="m256 21.909a234.09 234.09 0 0 0-234.09 234.09 234.09 234.09 0 0 0 234.09 234.09 234.09 234.09 0 0 0 234.09-234.09 234.09 234.09 0 0 0-234.09-234.09zm0 28.347a205.74 205.74 0 0 1 205.74 205.74 205.74 205.74 0 0 1-50.611 135.09l-290.22-290.22a205.74 205.74 0 0 1 135.09-50.611zm-155.13 70.653 290.22 290.22a205.74 205.74 0 0 1-135.09 50.611 205.74 205.74 0 0 1-205.74-205.74 205.74 205.74 0 0 1 50.611-135.09z" fill="#fff" stroke-width="2.1946"/></g></svg>
